General

Complete name                            : C:\Users\Megaport\git\projet-twizzy\Images_partie_OpenCV\video1.avi

Format                                   : AVI

Format/Info                              : Audio Video Interleave

Commercial name                          : DVCPRO

File size                                : 47.6 MiB

Duration                                 : 13 s 180 ms

Overall bit rate mode                    : Constant

Overall bit rate                         : 30.3 Mb/s

Recorded date                            : 2017-05-19T20:07:34+02:00

Writing application                      : Adobe Premiere Pro CS6 (Windows)



Video

ID                                       : 0

Format                                   : DV

Commercial name                          : DVCPRO

Codec ID                                 : dvsd

Codec ID/Hint                            : Sony

Duration                                 : 13 s 180 ms

Bit rate mode                            : Constant

Bit rate                                 : 24.4 Mb/s

Width                                    : 720 pixels

Height                                   : 480 pixels

Display aspect ratio                     : 4:3

Frame rate mode                          : Constant

Frame rate                               : 29.970 (30000/1001) FPS

Original frame rate                      : 29.970 (29970/1000) FPS

Standard                                 : NTSC

Color space                              : YUV

Chroma subsampling                       : 4:1:1

Bit depth                                : 8 bits

Scan type                                : Interlaced

Scan order                               : Bottom Field First

Compression mode                         : Lossy

Bits/(Pixel*Frame)                       : 2.357

Time code of first frame                 : 00;00;00;00 / 00;00;00;00

Time code source                         : Adobe tc_A / Adobe tc_O

Stream size                              : 45.2 MiB (95%)



Audio

ID                                       : 1

Format                                   : PCM

Format settings                          : Little / Signed

Codec ID                                 : 1

Duration                                 : 13 s 180 ms

Bit rate mode                            : Constant

Bit rate                                 : 1 536 kb/s

Channel(s)                               : 2 channels

Sampling rate                            : 48.0 kHz

Bit depth                                : 16 bits

Stream size                              : 2.41 MiB (5%)

Alignment                                : Aligned on interleaves

Interleave, duration                     : 879  ms (26.33 video frames)

Interleave, preload duration             : 967  ms

